<svg xmlns="http://www.w3.org/2000/svg" width="800" height="450" viewBox="0 0 800 450" fill="none" role="img" aria-label="Developer workspace">
  <defs>
    <linearGradient id="bg2" x1="0" y1="0" x2="1" y2="1">
      <stop offset="0" stop-color="#1f2937"/>
      <stop offset="1" stop-color="#111827"/>
    </linearGradient>
  </defs>
  <rect width="800" height="450" fill="url(#bg2)"/>
  <circle cx="130" cy="90" r="160" fill="#8b5cf6" opacity="0.14"/>
  <circle cx="700" cy="380" r="180" fill="#3b82f6" opacity="0.12"/>
  <rect x="150" y="90" width="500" height="230" rx="12" fill="#0b1120" stroke="#374151" stroke-width="1.5"/>
  <rect x="150" y="90" width="500" height="34" rx="12" fill="#151d2e"/>
  <circle cx="172" cy="107" r="5" fill="#ef4444"/>
  <circle cx="190" cy="107" r="5" fill="#eab308"/>
  <circle cx="208" cy="107" r="5" fill="#22c55e"/>
  <text x="175" y="165" font-family="ui-monospace, monospace" font-size="15" fill="#a78bfa">const</text>
  <text x="240" y="165" font-family="ui-monospace, monospace" font-size="15" fill="#f9fafb">dev = () =&gt; {</text>
  <text x="195" y="195" font-family="ui-monospace, monospace" font-size="15" fill="#9ca3af">return build(ideas);</text>
  <text x="175" y="225" font-family="ui-monospace, monospace" font-size="15" fill="#f9fafb">}</text>
  <rect x="175" y="250" width="260" height="12" rx="6" fill="#374151"/>
  <rect x="175" y="274" width="200" height="12" rx="6" fill="#374151"/>
  <rect x="330" y="345" width="140" height="8" rx="4" fill="#4b5563"/>
  <rect x="360" y="360" width="80" height="30" rx="4" fill="#151d2e" stroke="#374151"/>
</svg>