<svg xmlns="http://www.w3.org/2000/svg" width="800" height="500" viewBox="0 0 800 500" fill="none" role="img" aria-label="TaskFlow preview">
  <defs>
    <linearGradient id="bg" x1="0" y1="0" x2="1" y2="1">
      <stop offset="0" stop-color="#1f2937"/>
      <stop offset="1" stop-color="#111827"/>
    </linearGradient>
    <linearGradient id="em" x1="0" y1="0" x2="1" y2="0">
      <stop offset="0" stop-color="#a78bfa"/>
      <stop offset="1" stop-color="#8b5cf6"/>
    </linearGradient>
  </defs>
  <rect width="800" height="500" fill="url(#bg)"/>
  <g opacity="0.4" stroke="#374151" stroke-width="1">
    <line x1="0" y1="0" x2="800" y2="0"/>
    <line x1="0" y1="44" x2="800" y2="44"/>
    <line x1="0" y1="88" x2="800" y2="88"/>
    <line x1="0" y1="132" x2="800" y2="132"/>
    <line x1="0" y1="176" x2="800" y2="176"/>
    <line x1="0" y1="220" x2="800" y2="220"/>
    <line x1="0" y1="264" x2="800" y2="264"/>
    <line x1="0" y1="308" x2="800" y2="308"/>
    <line x1="0" y1="352" x2="800" y2="352"/>
    <line x1="0" y1="396" x2="800" y2="396"/>
    <line x1="0" y1="440" x2="800" y2="440"/>
    <line x1="0" y1="484" x2="800" y2="484"/>
  </g>
  <circle cx="640" cy="120" r="150" fill="#8b5cf6" opacity="0.16"/>
  <!-- browser window mockup -->
  <rect x="80" y="110" width="640" height="300" rx="14" fill="#0b1120" stroke="#374151" stroke-width="1.5"/>
  <rect x="80" y="110" width="640" height="44" rx="14" fill="#151d2e"/>
  <circle cx="108" cy="132" r="6" fill="#ef4444"/>
  <circle cx="130" cy="132" r="6" fill="#eab308"/>
  <circle cx="152" cy="132" r="6" fill="#22c55e"/>
  <rect x="300" y="122" width="220" height="20" rx="10" fill="#1f2937"/>
  <!-- left column: metric cards -->
  <rect x="112" y="182" width="180" height="26" rx="6" fill="url(#em)"/>
  <rect x="112" y="228" width="420" height="12" rx="6" fill="#374151"/>
  <rect x="112" y="252" width="360" height="12" rx="6" fill="#374151"/>
  <rect x="112" y="276" width="300" height="12" rx="6" fill="#374151"/>
  <rect x="112" y="322" width="120" height="34" rx="8" fill="url(#em)"/>
  <rect x="244" y="322" width="120" height="34" rx="8" fill="none" stroke="#374151" stroke-width="1.5"/>
  <!-- right column: mini bar chart -->
  <rect x="556" y="176" width="150" height="192" rx="10" fill="#151d2e" stroke="#374151"/>
  <rect x="578" y="274" width="26" height="70" rx="4" fill="#8b5cf6"/>
  <rect x="616" y="234" width="26" height="110" rx="4" fill="#3b82f6"/>
  <rect x="654" y="284" width="26" height="60" rx="4" fill="#22c55e"/>
  <rect x="692" y="214" width="26" height="130" rx="4" fill="#a78bfa"/>
  <rect x="730" y="254" width="26" height="90" rx="4" fill="#eab308"/>
  <rect x="768" y="224" width="26" height="120" rx="4" fill="#3b82f6"/>
  <text x="80" y="460" font-family="ui-monospace, monospace" font-size="30" font-weight="700" fill="#f9fafb">TaskFlow</text>
  <text x="80" y="486" font-family="ui-sans-serif, system-ui" font-size="16" fill="#a78bfa">Productivity · tRPC</text>
</svg>